<svg xmlns="http://www.w3.org/2000/svg" viewBox="0 0 673.69 112.5"><defs><style>.cls-1,.cls-2{fill:#fff;}.cls-1{stroke:#fff;stroke-miterlimit:10;}</style></defs><g id="Laag_2" data-name="Laag 2"><g id="Horizontaal_wit" data-name="Horizontaal wit"><g id="Logo"><path class="cls-1" d="M78.56,33.89v39.2a39,39,0,0,1-39-39v-.17Z"/><path class="cls-1" d="M39.78,111.78v.08H.5V72.75H.75a38.9,38.9,0,0,1,19.47,5.19h0A39,39,0,0,1,39.78,111.78Z"/><path class="cls-1" d="M58.56,77.71h0c-1-.46-2-.94-3-1.47h0a49,49,0,0,1-6.65-4.34A47.9,47.9,0,0,1,30.39,34v-.16H.55v2.68A39,39,0,0,0,21.74,68.77l.07,0,.74.37,0,0a47.62,47.62,0,0,1,7.62,4.87,47.89,47.89,0,0,1,18.49,37.84V112H78.46v-5.14A39,39,0,0,0,58.56,77.71Z"/></g><g id="Layer_2" data-name="Layer 2"><g id="Layer_2-2" data-name="Layer 2-2"><path class="cls-2" d="M144.2,100.58l9.31-14.91a43.37,43.37,0,0,0,25.54,8.56c5.76,0,9.84-2.36,9.84-5.76,0-4.72-5.61-6.2-13.43-8.2-15.65-3.84-27.76-8.2-27.89-23.18-.08-14.53,11.84-24.87,29.86-24.87a55.53,55.53,0,0,1,30.12,9.45L198.83,57a43.26,43.26,0,0,0-21.32-6.79c-5.32,0-9,1.92-9,4.58,0,4.13,3.1,5.32,13.44,8.2,13.12,3.32,27.67,7.71,27.67,24.43,0,15.06-12.25,24.61-31,24.61A56.52,56.52,0,0,1,144.2,100.58Z"/><path class="cls-2" d="M219.8,72.08c0-21.7,19.19-39.86,41.78-39.86a39.93,39.93,0,0,1,30,13L277.24,57.47a21.94,21.94,0,0,0-15.8-7.09c-11.22,0-20.67,9.84-20.67,21.56,0,12,9.45,22,20.81,22a22.57,22.57,0,0,0,16.1-7.39L292,98.61a40.28,40.28,0,0,1-30.56,13.44C238.85,112.1,219.8,93.79,219.8,72.08Z"/><path class="cls-2" d="M358.59,86.26l13.73,14c-6.79,7.09-19.93,11.81-31.17,11.81-22.74,0-40.46-16.68-40.46-40.16,0-23,17-39.71,39.28-39.71,23.92,0,37.94,18.16,37.94,47H322.86C325.37,87.34,332,93,341,93A27.65,27.65,0,0,0,358.59,86.26ZM323.15,63.67h34.11a15.92,15.92,0,0,0-16.41-12.4A18.45,18.45,0,0,0,323.15,63.67Z"/><path class="cls-2" d="M465,61.75v48.58H444.22v-44c0-9.45-5.9-15.95-14.46-15.95-9,0-15.95,6.56-15.95,14.77l-.15-.45v45.63H392.1V34h21.56v9.6c4.58-6.94,13.13-11.37,23-11.37C453.23,32.22,465,44.47,465,61.75Z"/><path class="cls-2" d="M482.15,11.66a11.67,11.67,0,1,1,11.67,11.67A11.67,11.67,0,0,1,482.15,11.66ZM483,34H504.6v76.37H483.06Z"/><path class="cls-2" d="M595.55,34v76.34H574v-9.6c-4.57,6.94-13.12,11.37-23,11.37-16.54,0-28.35-12.26-28.35-29.53V34h20.82V78c0,9.45,5.9,16,14.47,16,9,0,15.94-6.57,15.94-14.77l.13.44V34Z"/><path class="cls-2" d="M608.26,100.58l9.3-14.91a43.4,43.4,0,0,0,25.55,8.56c5.75,0,9.84-2.36,9.84-5.76,0-4.72-5.61-6.2-13.44-8.2-15.65-3.84-27.75-8.2-27.89-23.18-.14-14.47,11.82-24.8,29.83-24.8a55.44,55.44,0,0,1,30.1,9.45l-8.71,15.35a43.06,43.06,0,0,0-21.33-6.79c-5.31,0-9,1.92-9,4.58,0,4.13,3.1,5.31,13.42,8.2,13.12,3.39,27.76,7.82,27.76,24.51,0,15.06-12.26,24.61-31,24.61A56.46,56.46,0,0,1,608.26,100.58Z"/></g></g></g></g></svg>